<svg id="Layer_1" data-name="Layer 1" xmlns="http://www.w3.org/2000/svg" viewBox="0 0 138 106"><defs><style>.cls-1{fill:#fff;}</style></defs><title>OrchidPharmed_Logo</title><path class="cls-1" d="M8.25,91.55a6.35,6.35,0,1,0,5.94,5.94A6.33,6.33,0,0,0,8.25,91.55Zm0,10.85a4.53,4.53,0,1,1,4.11-4.09A4.55,4.55,0,0,1,8.26,102.4Z"/><path class="cls-1" d="M17.12,94.57h-1.7V104h1.7V98.89A2.93,2.93,0,0,1,20.91,96V94.5a3.38,3.38,0,0,0-3.79,1.23Z"/><path class="cls-1" d="M32,100.41H30.25a3,3,0,0,1-3,2.24,3.37,3.37,0,0,1,0-6.73,3,3,0,0,1,3,2.24H32a4.65,4.65,0,0,0-4.77-3.76,4.88,4.88,0,1,0,0,9.75A4.65,4.65,0,0,0,32,100.41Z"/><path class="cls-1" d="M35,95.73v-4h-1.7V104H35V98.87a2.69,2.69,0,0,1,2.84-2.93c2,0,2.47,1.24,2.47,3V104H42V98.93c0-2.71-1.24-4.51-4.12-4.51A3.21,3.21,0,0,0,35,95.73Z"/><path class="cls-1" d="M45.48,92.13a1.07,1.07,0,0,0-2.13,0A1.07,1.07,0,0,0,45.48,92.13Zm-.21,2.32V104H43.56V94.45Z"/><path class="cls-1" d="M72.76,95.73v-4h-1.7V104h1.7V98.87a2.69,2.69,0,0,1,2.85-2.93c2,0,2.46,1.24,2.46,3V104h1.71V98.93c0-2.71-1.24-4.51-4.12-4.51A3.21,3.21,0,0,0,72.76,95.73Z"/><path class="cls-1" d="M91.21,94.58V104H89.5v-1.28a4.2,4.2,0,0,1-3.37,1.44,4.89,4.89,0,1,1,0-9.77,4.13,4.13,0,0,1,3.43,1.41l0-1.25Zm-5.15,1.34a3.2,3.2,0,0,0-3.31,3.34,3.38,3.38,0,1,0,3.31-3.34Z"/><path class="cls-1" d="M94.48,94.62H92.79v9.43h1.69V98.93a2.94,2.94,0,0,1,3.8-2.88v-1.5a3.38,3.38,0,0,0-3.8,1.22Z"/><path class="cls-1" d="M54.91,91.78h1.71V104H54.91v-1.27a3.76,3.76,0,0,1-3.16,1.43,4.64,4.64,0,0,1-5-4.93,4.57,4.57,0,0,1,3.85-4.74l.9,1.42a3.28,3.28,0,0,0-3,3.32,3.24,3.24,0,1,0,6.48,0,3.6,3.6,0,0,0-.46-1.86h0l-1.88-3a3.3,3.3,0,0,1,2.34,1.33Z"/><path class="cls-1" d="M65.4,91.78a4.08,4.08,0,0,1,0,8.16H62.71V104H60.93V91.81l1.78,2.8v3.58H65.4a2.32,2.32,0,0,0,0-4.63H64.07l-1.13-1.78Z"/><path class="cls-1" d="M136.5,91.78h-1.71v4a3.31,3.31,0,0,0-2.34-1.32l1.87,2.92h0a3.62,3.62,0,0,1,.48,1.89,3.25,3.25,0,1,1-6.49,0,3.28,3.28,0,0,1,3-3.32l-.9-1.42a4.58,4.58,0,0,0-3.86,4.74,4.64,4.64,0,0,0,5,4.93,3.78,3.78,0,0,0,3.17-1.43V104h1.71Z"/><path class="cls-1" d="M125.24,98.87a2.46,2.46,0,0,1,0,.82h-8a3.15,3.15,0,0,0,3.18,3,3,3,0,0,0,2.81-1.58H125a4.91,4.91,0,0,1-9.47-1.8,5.07,5.07,0,0,1,.71-2.69l1.07,1.67h6.17a2.87,2.87,0,0,0-3-2.36,3.35,3.35,0,0,0-2.15.7l-.83-1.3a5.18,5.18,0,0,1,3-.9A4.63,4.63,0,0,1,125.24,98.87Z"/><path class="cls-1" d="M107,95.56l1.13,1.78a3.17,3.17,0,0,0-.26,1.34V104h-1.72V98.7c0-1.33-.5-2.71-2.08-2.71a2.59,2.59,0,0,0-2.63,2.88V104H99.75V94.4h1.72v1.33a3,3,0,0,1,2.65-1.33A3.42,3.42,0,0,1,107,95.56Z"/><path class="cls-1" d="M110.36,94.4c2.6,0,3.74,1.83,3.74,4.23V104h-1.71V98.65c0-1.33-.34-2.66-2-2.66a3,3,0,0,0-1,.16l-.85-1.33A3.9,3.9,0,0,1,110.36,94.4Z"/><path class="cls-1" d="M85.31,35.59c0,.6,0,1.4-.1,2.21a26.16,26.16,0,0,1-3.82,11.69,25.55,25.55,0,0,1-6.13,6.77,30.05,30.05,0,0,1-6.57,3.84,36.4,36.4,0,0,1-4.53,1.61c-.26.07-.26,0-.19.31L65.74,69c.67,2.67,1.34,5.35,2,8l1.65,6.58a1.19,1.19,0,0,1-.26,1.14,1.23,1.23,0,0,1-2.08-.42c-.07-.22-.12-.44-.17-.66-.7-2.76-1.39-5.52-2.09-8.29q-1.14-4.54-2.29-9.09L61,60.2a.14.14,0,0,0,0-.06c0-.11,0-.13.1-.16l.8-.19A35.68,35.68,0,0,0,67,58.16a28.6,28.6,0,0,0,6.14-3.36,23,23,0,0,0,9-13.3,25.33,25.33,0,0,0,.5-2.57c.09-.74.16-1.47.2-2.21s0-1.24,0-1.86-.06-1.38-.12-2.07-.12-1.11-.21-1.66a26.56,26.56,0,0,0-.58-2.79,28.45,28.45,0,0,0-3.6-8.22,25.43,25.43,0,0,0-4.81-5.54,22.06,22.06,0,0,0-7.75-4.34,20.86,20.86,0,0,0-3-.72c-.65-.1-1.32-.18-2-.22a22.26,22.26,0,0,0-2.71,0c-.59,0-1.19.08-1.78.16l-2.75.38c-1.41.21-2.8.47-4.19.79l-2.19.5a1.24,1.24,0,0,1-1.43-.66,1.22,1.22,0,0,1,.72-1.68c.23-.07.47-.12.7-.17,1-.23,2-.46,3-.66.71-.15,1.42-.28,2.14-.39l2-.3L55.88,7c.55-.07,1.11-.12,1.67-.16.86,0,1.73-.06,2.59,0A17.56,17.56,0,0,1,61.91,7a23.82,23.82,0,0,1,2.51.4,23.54,23.54,0,0,1,6.72,2.57A25.62,25.62,0,0,1,77.51,15a29.63,29.63,0,0,1,5.66,9.16,30.43,30.43,0,0,1,1.54,5.2c.16.79.28,1.59.38,2.39A31.65,31.65,0,0,1,85.31,35.59Z"/><path class="cls-1" d="M93.28,35.45c0,.88,0,1.69-.07,2.5s-.14,1.67-.25,2.5a37.05,37.05,0,0,1-1.15,5.42,33.09,33.09,0,0,1-4.65,9.76,29.86,29.86,0,0,1-8.56,8.2A30.75,30.75,0,0,1,73,66.61l-.07,0c-.15.06-.16.06-.11.23.21.83.43,1.66.64,2.49.55,2.2,1.11,4.39,1.66,6.58l1.71,6.8c.06.23.11.47.17.7a1.22,1.22,0,0,1-2.37.6c-.15-.54-.28-1.09-.42-1.64q-.84-3.39-1.7-6.78L70.8,68.87c-.3-1.19-.62-2.38-.93-3.57,0,0,0-.07,0-.1s0-.09.07-.12l.67-.22A29.09,29.09,0,0,0,75,63.07,27.47,27.47,0,0,0,84.63,55,30.77,30.77,0,0,0,89,46.78a33.56,33.56,0,0,0,1.3-4.94c.14-.75.25-1.5.34-2.26a34.07,34.07,0,0,0,.21-5.53c0-.57-.06-1.13-.11-1.7s-.12-1.2-.2-1.79q-.17-1.18-.42-2.34a33.89,33.89,0,0,0-1.4-4.84A32.1,32.1,0,0,0,72.47,5.47c-1-.47-1.94-.9-2.93-1.28l-.26-.1a1.22,1.22,0,0,1-.7-1.26,1.24,1.24,0,0,1,1-1,1.26,1.26,0,0,1,.67.07c.48.19.95.37,1.41.57A35.17,35.17,0,0,1,79.51,7,34,34,0,0,1,88.65,17.5a35.9,35.9,0,0,1,3.53,8.94c.27,1.09.49,2.19.67,3.3.1.66.18,1.31.24,2A32.7,32.7,0,0,1,93.28,35.45Z"/><path class="cls-1" d="M100.27,35.54c0,1,0,1.94-.1,2.91S100,40.17,99.92,41a42.59,42.59,0,0,1-1.65,7.57A40.31,40.31,0,0,1,92.81,59.7a35.47,35.47,0,0,1-6.1,6.68A32,32,0,0,1,81.52,70l-.16.09c-.1.05-.1.06-.07.16.13.52.26,1,.4,1.55q.72,2.85,1.43,5.68c.36,1.43.72,2.85,1.07,4.28a1.23,1.23,0,0,1,0,.78,1.23,1.23,0,0,1-2.3-.06c-.07-.22-.12-.44-.17-.66-.7-2.76-1.39-5.52-2.09-8.29-.37-1.48-.76-3-1.14-4.44a.83.83,0,0,1,0-.15.08.08,0,0,1,0-.1l.22-.11c.86-.43,1.71-.88,2.53-1.38a30.91,30.91,0,0,0,6.65-5.41A35.28,35.28,0,0,0,94,52.78a39.08,39.08,0,0,0,2.82-8.28c.22-1,.4-2,.55-3s.22-1.71.3-2.56c0-.63.09-1.27.11-1.9s0-1.42,0-2.13,0-1.67-.12-2.51c0-.56-.09-1.12-.16-1.68-.1-.87-.23-1.74-.39-2.6a38.61,38.61,0,0,0-.88-3.83,40.44,40.44,0,0,0-5.57-11.85,41.24,41.24,0,0,0-4.08-5.06,1.49,1.49,0,0,1-.36-.59,1.23,1.23,0,0,1,2-1.25,1.14,1.14,0,0,1,.16.15,43.39,43.39,0,0,1,9.77,16.43,41.73,41.73,0,0,1,1.3,5c.17.89.32,1.77.43,2.66.09.64.15,1.27.21,1.91C100.21,33,100.26,34.28,100.27,35.54Z"/><path class="cls-1" d="M108,36c0,.72,0,1.55-.06,2.39s-.09,1.43-.15,2.15-.15,1.44-.25,2.15c-.18,1.26-.41,2.52-.69,3.76a45,45,0,0,1-8.64,18.16,49.92,49.92,0,0,1-6.61,6.87q-.9.76-1.83,1.5l0,0c-.08.05-.09.11-.07.21.22.82.43,1.63.63,2.45l.75,3a1.35,1.35,0,0,1,0,.72,1.23,1.23,0,0,1-2.32.14,4.34,4.34,0,0,1-.14-.48c-.53-2.24-1.12-4.46-1.7-6.68a.29.29,0,0,0,0-.09.13.13,0,0,1,.06-.17L88,71.22a48.27,48.27,0,0,0,6.76-6.34,42.92,42.92,0,0,0,8.34-14.25,43.72,43.72,0,0,0,1.49-5.41c.19-.9.35-1.8.48-2.71.08-.55.14-1.09.2-1.64.12-1.08.19-2.16.24-3.25s0-2.08,0-3.12c0-.84-.06-1.68-.13-2.51s-.16-1.73-.27-2.59a54.21,54.21,0,0,0-1.42-7,1.4,1.4,0,0,1,0-.76,1.21,1.21,0,0,1,1.12-.9,1.19,1.19,0,0,1,1.2.79c.09.25.15.51.22.76.33,1.26.62,2.52.86,3.8.14.77.27,1.56.39,2.34s.21,1.63.29,2.45.12,1.39.16,2.09C108,33.92,108,34.88,108,36Z"/><path class="cls-1" d="M31.76,29a1.21,1.21,0,0,1,1.19.88c.09.28.16.57.24.85.7,2.66,1.37,5.33,2.05,8s1.35,5.32,2,8c.74,2.92,1.47,5.83,2.2,8.75l1.89,7.5q1,4.16,2.08,8.31c.17.69.34,1.37.52,2.06A1.43,1.43,0,0,1,44,74a1.23,1.23,0,0,1-1.13,1,1.22,1.22,0,0,1-1.24-.86c-.09-.3-.16-.61-.24-.92C40.6,70,39.82,66.93,39,63.82q-.9-3.6-1.81-7.19l-2.07-8.22L33.1,40.23c-.78-3-1.55-6.11-2.36-9.15l-.15-.57A1.21,1.21,0,0,1,31.45,29Z"/><path class="cls-1" d="M96,76.28a1.18,1.18,0,0,1-1.11-.7,1.16,1.16,0,0,1,.17-1.31l.11-.12A67.33,67.33,0,0,0,100,69a63.85,63.85,0,0,0,4.57-6.17,43.13,43.13,0,0,0,3.22-5.89q.48-1.07.87-2.16a2,2,0,0,1,.08-.22,1.22,1.22,0,0,1,1.4-.7,1.24,1.24,0,0,1,1,1.25,1.75,1.75,0,0,1-.1.44c-.33.92-.7,1.83-1.11,2.72A45.42,45.42,0,0,1,106.71,64a66.08,66.08,0,0,1-5.27,7.06c-1.37,1.6-2.79,3.15-4.29,4.62l-.31.3A1.2,1.2,0,0,1,96,76.28Z"/><path class="cls-1" d="M28.13,45a1.18,1.18,0,0,1,1.15.8c.09.24.16.48.23.73.41,1.52.8,3.05,1.18,4.58l1.56,6.27c.34,1.35.67,2.71,1,4.06a1.2,1.2,0,0,1-.66,1.4A1.23,1.23,0,0,1,30.88,62c-.09-.31-.16-.62-.23-.92q-1-4-2-8c-.44-1.75-.89-3.49-1.34-5.24-.11-.44-.24-.88-.37-1.33a1.21,1.21,0,0,1,.74-1.45A1,1,0,0,1,28.13,45Z"/><path class="cls-1" d="M76.77,33.74a20.9,20.9,0,0,0-.25-2.09,22.32,22.32,0,0,0-1-3.93,20.86,20.86,0,0,0-4.64-7.5,18.9,18.9,0,0,0-11.65-5.74,20.82,20.82,0,0,0-2.6-.14,24.88,24.88,0,0,0-5.38.67l-2.85.7L40.81,17.6a11.23,11.23,0,0,0-1.81.58,5.81,5.81,0,0,0-1.47.85,3.43,3.43,0,0,0-1.33,2.73,5.78,5.78,0,0,0,.2,1.55L37.33,27q.83,3.29,1.67,6.58T40.61,40l1.56,6.18c.56,2.18,1.11,4.37,1.66,6.55l1.71,6.75c.57,2.25,1.13,4.49,1.7,6.73l1.62,6.4.72,2.88a17.66,17.66,0,0,0,.8,2.56,10.41,10.41,0,0,0,1.7,2.85,7.63,7.63,0,0,0,3.3,2.32,8.35,8.35,0,0,0,2.67.49,10.69,10.69,0,0,0,1.79-.09l1-.16.81-.14c.08,0,.09,0,.07-.13-.18-.69-.35-1.39-.53-2.08L59.28,73.5C58.63,71,58,68.43,57.34,65.9s-1.23-4.82-1.84-7.24c-.16-.65-.33-1.3-.49-1.95,0-.08,0-.1.06-.13l.09,0L60,55.35c1-.24,1.92-.49,2.86-.82a22.41,22.41,0,0,0,5.69-2.88,19.07,19.07,0,0,0,6.62-8.14,19.39,19.39,0,0,0,1.36-4.65,21.5,21.5,0,0,0,.25-2.25A21.13,21.13,0,0,0,76.77,33.74Zm-2.43,2.71a15.81,15.81,0,0,1-.21,1.93,17.59,17.59,0,0,1-.77,3,16.65,16.65,0,0,1-6.61,8.51,20.54,20.54,0,0,1-4.83,2.34c-.84.29-1.71.51-2.57.73l-6.43,1.61-.82.2c-.09,0-.1,0-.08.13l.24,1q1,3.74,1.9,7.45l1.89,7.41c.6,2.35,1.19,4.7,1.79,7.06l.84,3.28s0,.06,0,.08a.12.12,0,0,1-.09,0,5.75,5.75,0,0,1-3.74-1.08,5.88,5.88,0,0,1-1.22-1.27,8.82,8.82,0,0,1-1.17-2.26,17.64,17.64,0,0,1-.53-1.85l-.63-2.52c-.6-2.36-1.19-4.72-1.79-7.08q-.81-3.19-1.61-6.38l-1.8-7.11q-.86-3.36-1.7-6.73c-.63-2.49-1.27-5-1.9-7.47-.58-2.31-1.17-4.62-1.75-6.93L39,23.44c-.08-.34-.17-.69-.24-1a2.32,2.32,0,0,1-.07-.59,1.08,1.08,0,0,1,.47-.93,3.48,3.48,0,0,1,.56-.34A8.73,8.73,0,0,1,41.29,20l9.38-2.35c.7-.18,1.41-.35,2.12-.48S54,17,54.61,16.9a19.78,19.78,0,0,1,2.55-.11,17.34,17.34,0,0,1,6.39,1.32,16.34,16.34,0,0,1,5.88,4.19,19.61,19.61,0,0,1,4.72,10.11,19.14,19.14,0,0,1,.21,2.14C74.38,35.18,74.38,35.81,74.34,36.45Z"/><path class="cls-1" d="M55.9,21.56a13.38,13.38,0,0,1,4.83.72,10.13,10.13,0,0,1,5.05,3.93,13.61,13.61,0,0,1,1.49,3,1.23,1.23,0,0,1-2.29.89c0-.12-.09-.25-.14-.38A9.81,9.81,0,0,0,63.3,27a7.64,7.64,0,0,0-3.83-2.55,10.11,10.11,0,0,0-2-.37,13.36,13.36,0,0,0-2.28,0,19.08,19.08,0,0,0-3,.46q-2.44.57-4.87,1.2a.35.35,0,0,0-.11,0s-.07,0-.06.08l.06.27,2.13,8.37q.75,2.93,1.48,5.85L52,44.83a1.2,1.2,0,0,1-.37,1.26,1.22,1.22,0,0,1-2-.53,8.75,8.75,0,0,1-.23-.88l-2.31-9.16-1.83-7.23c-.35-1.38-.71-2.75-1.07-4.12,0-.19,0-.2.14-.24q3.39-.87,6.78-1.7a23.2,23.2,0,0,1,2.32-.46A16.34,16.34,0,0,1,55.9,21.56Z"/></svg>