<svg xmlns="http://www.w3.org/2000/svg" width="115.93" height="88" viewBox="0 0 115.93 88">
  <g id="Group_631" data-name="Group 631" transform="translate(-36.443 -38.379)">
    <g id="Group_631-2" data-name="Group 631" transform="translate(36.443 115.136)">
      <path id="Path_136" data-name="Path 136" d="M42.236,255.377a5.455,5.455,0,1,0,5.106,5.108A5.437,5.437,0,0,0,42.236,255.377Zm.01,9.323a3.895,3.895,0,1,1,3.53-3.516A3.875,3.875,0,0,1,42.246,264.7Z" transform="translate(-36.443 -255.033)" fill="#fff"/>
      <path id="Path_137" data-name="Path 137" d="M71.547,262.4H70.091v8.1h1.456v-4.4a2.517,2.517,0,0,1,3.256-2.476v-1.29a2.906,2.906,0,0,0-3.256,1.051Z" transform="translate(-58.137 -259.451)" fill="#fff"/>
      <path id="Path_138" data-name="Path 138" d="M95.117,267.455H93.6a2.567,2.567,0,0,1-2.551,1.921,2.891,2.891,0,0,1-.015-5.777,2.584,2.584,0,0,1,2.566,1.921h1.516a3.984,3.984,0,0,0-4.1-3.226,4.187,4.187,0,1,0,.03,8.373A3.978,3.978,0,0,0,95.117,267.455Z" transform="translate(-68.912 -259.498)" fill="#fff"/>
      <path id="Path_139" data-name="Path 139" d="M114.812,259.349v-3.392h-1.456v10.5h1.456V262.05a2.32,2.32,0,0,1,2.446-2.521c1.726.03,2.116,1.065,2.116,2.581v4.351h1.471V262.1c0-2.326-1.065-3.871-3.541-3.871A2.773,2.773,0,0,0,114.812,259.349Z" transform="translate(-86.031 -255.414)" fill="#fff"/>
      <path id="Path_140" data-name="Path 140" d="M139.43,255.271a.918.918,0,0,0-1.831,0A.918.918,0,0,0,139.43,255.271Zm-.18,2v8.208h-1.471v-8.208Z" transform="translate(-101.661 -254.427)" fill="#fff"/>
      <path id="Path_141" data-name="Path 141" d="M206.038,259.349v-3.392h-1.456v10.5h1.456V262.05a2.32,2.32,0,0,1,2.446-2.521c1.726.03,2.116,1.065,2.116,2.581v4.351h1.47V262.1c0-2.326-1.065-3.871-3.541-3.871A2.774,2.774,0,0,0,206.038,259.349Z" transform="translate(-144.846 -255.414)" fill="#fff"/>
      <g id="Group_629" data-name="Group 629" transform="translate(68.305 2.809)">
        <path id="Path_142" data-name="Path 142" d="M237.435,262.47v8.118h-1.471v-1.1a3.6,3.6,0,0,1-2.9,1.23,4.2,4.2,0,1,1-.03-8.388,3.528,3.528,0,0,1,2.941,1.216l-.015-1.08Zm-4.426,1.155a2.741,2.741,0,0,0-2.836,2.866,2.9,2.9,0,1,0,5.792.03A2.845,2.845,0,0,0,233.009,263.626Z" transform="translate(-228.702 -262.335)" fill="#fff"/>
      </g>
      <path id="Path_143" data-name="Path 143" d="M258.551,262.5H257.1v8.1h1.455v-4.4a2.517,2.517,0,0,1,3.256-2.476v-1.291a2.906,2.906,0,0,0-3.256,1.051Z" transform="translate(-178.703 -259.515)" fill="#fff"/>
      <path id="Path_144" data-name="Path 144" d="M152.773,255.958h1.471v10.5h-1.471v-1.1a3.23,3.23,0,0,1-2.716,1.23,3.978,3.978,0,0,1-4.322-4.231,3.923,3.923,0,0,1,3.307-4.068l.774,1.214a2.818,2.818,0,0,0-2.61,2.853,2.786,2.786,0,1,0,5.567.03,3.135,3.135,0,0,0-.4-1.6l0,0-1.619-2.541a2.846,2.846,0,0,1,2.014,1.139Z" transform="translate(-106.907 -255.414)" fill="#fff"/>
      <path id="Path_145" data-name="Path 145" d="M183.927,255.958a3.505,3.505,0,0,1,0,7.008h-2.311v3.5h-1.531V255.985l1.531,2.4v3.078h2.311a1.99,1.99,0,0,0,0-3.977h-1.14l-.975-1.53Z" transform="translate(-129.052 -255.414)" fill="#fff"/>
      <path id="Path_146" data-name="Path 146" d="M347.31,255.958H345.84v3.436a2.844,2.844,0,0,0-2.005-1.138l1.6,2.513-.009.005a3.121,3.121,0,0,1,.413,1.621,2.787,2.787,0,1,1-5.567-.03,2.818,2.818,0,0,1,2.618-2.854l-.775-1.216a3.924,3.924,0,0,0-3.314,4.069,3.979,3.979,0,0,0,4.322,4.231,3.231,3.231,0,0,0,2.716-1.23v1.1h1.471Z" transform="translate(-231.38 -255.414)" fill="#fff"/>
      <path id="Path_147" data-name="Path 147" d="M320.333,266.162a2.184,2.184,0,0,1-.03.706h-6.872a2.707,2.707,0,0,0,2.731,2.551,2.617,2.617,0,0,0,2.416-1.351h1.516a4.216,4.216,0,0,1-8.133-1.545,4.319,4.319,0,0,1,.615-2.315l.917,1.439v.006h5.3a2.465,2.465,0,0,0-2.611-2.026,2.923,2.923,0,0,0-1.846.6l-.713-1.119a4.479,4.479,0,0,1,2.559-.771A3.983,3.983,0,0,1,320.333,266.162Z" transform="translate(-214.075 -259.526)" fill="#fff"/>
      <g id="Group_630" data-name="Group 630" transform="translate(84.373 2.795)">
        <path id="Path_148" data-name="Path 148" d="M280.176,263.291l.971,1.525a2.819,2.819,0,0,0-.227,1.154v4.577H279.45v-4.562c0-1.14-.435-2.326-1.786-2.326a2.228,2.228,0,0,0-2.266,2.476v4.412h-1.471v-8.253H275.4v1.141a2.578,2.578,0,0,1,2.281-1.141A2.913,2.913,0,0,1,280.176,263.291Z" transform="translate(-273.928 -262.293)" fill="#fff"/>
        <path id="Path_149" data-name="Path 149" d="M296.8,262.293c2.236,0,3.211,1.576,3.211,3.631v4.622h-1.471v-4.607c0-1.14-.285-2.281-1.7-2.281a2.484,2.484,0,0,0-.84.138l-.729-1.145A3.337,3.337,0,0,1,296.8,262.293Z" transform="translate(-287.692 -262.293)" fill="#fff"/>
      </g>
    </g>
    <g id="Group_632" data-name="Group 632" transform="translate(58.263 38.379)">
      <path id="Path_150" data-name="Path 150" d="M177.141,75.283c.007.513-.027,1.206-.087,1.9a22.455,22.455,0,0,1-3.277,10.045,21.985,21.985,0,0,1-5.271,5.811,25.942,25.942,0,0,1-5.638,3.3,31.514,31.514,0,0,1-3.891,1.381c-.218.062-.222.022-.159.269q.759,2.973,1.514,5.946.871,3.445,1.736,6.892.711,2.824,1.419,5.65a1.025,1.025,0,0,1-.227.98,1.052,1.052,0,0,1-1.784-.364c-.061-.184-.1-.374-.149-.563q-.9-3.559-1.79-7.118-.984-3.907-1.973-7.813c-.438-1.725-.887-3.447-1.332-5.171,0-.019-.013-.037-.017-.056-.022-.092-.013-.108.086-.133q.34-.085.681-.167a31.374,31.374,0,0,0,4.419-1.4,24.478,24.478,0,0,0,5.269-2.885,20.078,20.078,0,0,0,5.217-5.512,19.876,19.876,0,0,0,2.514-5.91,20.705,20.705,0,0,0,.424-2.211q.128-.944.176-1.9c.028-.531.033-1.062.026-1.593-.009-.6-.048-1.191-.1-1.784q-.067-.716-.177-1.426A24.5,24.5,0,0,0,171.157,62a21.736,21.736,0,0,0-4.134-4.763,18.911,18.911,0,0,0-6.654-3.727,17.975,17.975,0,0,0-2.6-.613q-.848-.134-1.7-.195a20.5,20.5,0,0,0-2.322-.022c-.513.022-1.026.065-1.535.136-.786.11-1.572.216-2.357.33-1.21.176-2.411.4-3.6.671-.627.141-1.254.289-1.881.431a1.052,1.052,0,0,1-1.224-.568,1.04,1.04,0,0,1,.617-1.437c.2-.064.4-.1.605-.151.855-.2,1.71-.394,2.57-.568.612-.124,1.225-.24,1.842-.334q.868-.131,1.736-.258c.45-.066.9-.137,1.352-.193q.716-.09,1.437-.137c.741-.049,1.483-.052,2.225-.032.507.014,1.013.056,1.518.11a20.646,20.646,0,0,1,2.155.349,20.362,20.362,0,0,1,5.767,2.2,22.113,22.113,0,0,1,5.477,4.4,25.44,25.44,0,0,1,4.858,7.867,26.528,26.528,0,0,1,1.319,4.464q.207,1.018.329,2.051A26.7,26.7,0,0,1,177.141,75.283Z" transform="translate(-126.989 -46.236)" fill="#fff"/>
      <path id="Path_151" data-name="Path 151" d="M219.785,67.312c0,.749-.016,1.449-.065,2.147-.05.717-.12,1.432-.216,2.146a30.9,30.9,0,0,1-.983,4.65,28.513,28.513,0,0,1-4,8.384,25.71,25.71,0,0,1-7.35,7.043,26.289,26.289,0,0,1-4.809,2.389c-.018.007-.038.011-.056.018-.136.052-.137.054-.1.2.183.715.368,1.429.55,2.144q.716,2.823,1.429,5.647.735,2.919,1.466,5.838c.05.2.1.4.149.6a1.052,1.052,0,0,1-2.038.518c-.126-.469-.238-.941-.356-1.412q-.73-2.91-1.46-5.82t-1.471-5.8c-.261-1.022-.529-2.043-.794-3.064-.008-.031-.018-.062-.025-.094-.011-.059,0-.077.063-.1.191-.064.382-.128.574-.189a25.034,25.034,0,0,0,3.788-1.539,23.511,23.511,0,0,0,8.267-6.971,26.016,26.016,0,0,0,3.709-7.02,28.444,28.444,0,0,0,1.124-4.238c.119-.643.212-1.29.291-1.939a30.526,30.526,0,0,0,.18-4.753c-.017-.486-.053-.97-.1-1.454q-.07-.774-.177-1.544-.141-1.01-.354-2.008a29.568,29.568,0,0,0-1.2-4.156,27.6,27.6,0,0,0-13.914-15.381q-1.234-.605-2.519-1.095c-.073-.028-.147-.053-.217-.086a1.046,1.046,0,0,1,.267-1.984,1.031,1.031,0,0,1,.574.061c.406.158.811.317,1.212.486a30.675,30.675,0,0,1,6.732,3.891,29.321,29.321,0,0,1,7.85,9.061,30.857,30.857,0,0,1,3.027,7.676q.349,1.405.571,2.835c.088.563.158,1.129.214,1.7A31.1,31.1,0,0,1,219.785,67.312Z" transform="translate(-162.785 -38.379)" fill="#fff"/>
      <path id="Path_152" data-name="Path 152" d="M241.1,72.873c0,.836-.031,1.672-.086,2.505-.048.737-.122,1.471-.214,2.2a36.686,36.686,0,0,1-1.418,6.5,34.408,34.408,0,0,1-4.688,9.538,30.432,30.432,0,0,1-5.235,5.74A28.019,28.019,0,0,1,225,102.452c-.045.025-.091.05-.136.076-.081.047-.082.048-.06.137.113.446.228.89.341,1.336q.618,2.437,1.235,4.875.463,1.835.917,3.673a1.073,1.073,0,0,1-.034.668,1.054,1.054,0,0,1-1.007.665,1.041,1.041,0,0,1-.97-.716c-.06-.184-.1-.375-.148-.563q-.895-3.559-1.791-7.117c-.323-1.274-.656-2.545-.985-3.817-.011-.044-.025-.087-.035-.131a.067.067,0,0,1,.038-.08l.19-.1c.739-.368,1.468-.753,2.175-1.18a26.7,26.7,0,0,0,5.708-4.65,30.414,30.414,0,0,0,5.28-7.845,33.764,33.764,0,0,0,2.426-7.117q.28-1.261.469-2.539.163-1.1.255-2.2c.045-.542.077-1.085.1-1.629.022-.609.035-1.218.023-1.827-.013-.719-.043-1.437-.1-2.154-.037-.485-.08-.968-.137-1.451q-.132-1.119-.334-2.228-.3-1.664-.762-3.29a34.762,34.762,0,0,0-4.778-10.176,36,36,0,0,0-3.5-4.345,1.186,1.186,0,0,1-.308-.509,1.052,1.052,0,0,1,1.7-1.075,1.737,1.737,0,0,1,.139.136,37.179,37.179,0,0,1,8.391,14.107,36.211,36.211,0,0,1,1.115,4.322q.221,1.135.373,2.28c.072.546.129,1.093.177,1.642C241.05,70.711,241.094,71.791,241.1,72.873Z" transform="translate(-178.104 -43.87)" fill="#fff"/>
      <path id="Path_153" data-name="Path 153" d="M260.907,97.294c.012.62-.016,1.338-.051,2.057q-.045.921-.135,1.841c-.059.619-.129,1.237-.215,1.852q-.228,1.626-.587,3.228a39.337,39.337,0,0,1-1.506,5.079,38.686,38.686,0,0,1-5.919,10.512,42.326,42.326,0,0,1-5.676,5.9q-.768.66-1.565,1.287a.445.445,0,0,1-.046.036c-.073.043-.081.1-.06.18q.277,1.051.543,2.106.322,1.27.638,2.542a1.187,1.187,0,0,1,.014.614,1.048,1.048,0,0,1-.983.779,1.031,1.031,0,0,1-1.01-.659,3.258,3.258,0,0,1-.118-.41c-.456-1.921-.964-3.828-1.46-5.739-.006-.025-.014-.05-.022-.075a.123.123,0,0,1,.057-.149c.311-.235.622-.47.93-.709a41.623,41.623,0,0,0,5.8-5.442,36.748,36.748,0,0,0,7.162-12.243,37.124,37.124,0,0,0,1.282-4.638q.241-1.161.411-2.333c.068-.468.12-.938.173-1.407.105-.927.165-1.858.2-2.79.036-.894.036-1.788.014-2.682-.017-.719-.057-1.437-.114-2.154-.06-.742-.136-1.483-.233-2.222a45.37,45.37,0,0,0-1.219-6.029,1.208,1.208,0,0,1-.027-.65,1.048,1.048,0,0,1,.966-.775,1.032,1.032,0,0,1,1.033.68c.076.213.129.434.186.653q.424,1.616.736,3.257.189,1,.333,2.012.151,1.048.255,2.1.087.9.136,1.8C260.883,95.537,260.91,96.365,260.907,97.294Z" transform="translate(-191.268 -67.922)" fill="#fff"/>
      <path id="Path_154" data-name="Path 154" d="M107.691,104.2a1.044,1.044,0,0,1,1.028.756c.072.242.135.486.2.73.6,2.284,1.185,4.573,1.765,6.863s1.159,4.566,1.736,6.85q.948,3.755,1.892,7.511.809,3.22,1.616,6.44.894,3.568,1.788,7.137.222.885.445,1.77a1.165,1.165,0,0,1,.026.556,1.054,1.054,0,0,1-2.034.087c-.076-.26-.135-.527-.2-.79q-1-4-2.006-8-.774-3.088-1.55-6.176-.888-3.53-1.78-7.059-.886-3.511-1.775-7.021c-.667-2.621-1.327-5.244-2.024-7.858-.043-.162-.088-.325-.13-.488a1.045,1.045,0,0,1,.743-1.271A1.282,1.282,0,0,1,107.691,104.2Z" transform="translate(-103.529 -80.814)" fill="#fff"/>
      <path id="Path_155" data-name="Path 155" d="M263,183.444a1.049,1.049,0,0,1-.807-1.726,1.066,1.066,0,0,1,.094-.1,56.494,56.494,0,0,0,4.121-4.461,53.9,53.9,0,0,0,3.924-5.3,36.9,36.9,0,0,0,2.77-5.058c.27-.61.52-1.228.743-1.857.022-.061.042-.123.068-.182a1.055,1.055,0,0,1,2.021.466,1.274,1.274,0,0,1-.087.377q-.425,1.189-.949,2.339a39.279,39.279,0,0,1-2.729,4.95,56.748,56.748,0,0,1-4.526,6.061c-1.17,1.375-2.39,2.7-3.681,3.968-.088.086-.176.173-.269.254A1.019,1.019,0,0,1,263,183.444Z" transform="translate(-203.642 -119.456)" fill="#fff"/>
      <path id="Path_156" data-name="Path 156" d="M98.9,142.829a1.036,1.036,0,0,1,.994.687c.075.206.133.419.191.631.357,1.3.688,2.616,1.017,3.928q.675,2.692,1.342,5.387.432,1.743.857,3.487a1.042,1.042,0,0,1-.566,1.2,1.054,1.054,0,0,1-1.473-.679c-.07-.263-.131-.528-.2-.792q-.854-3.448-1.709-6.9c-.375-1.5-.761-3-1.146-4.5-.1-.382-.212-.76-.318-1.141a1.044,1.044,0,0,1,.632-1.251A.991.991,0,0,1,98.9,142.829Z" transform="translate(-97.858 -105.72)" fill="#fff"/>
      <path id="Path_157" data-name="Path 157" d="M155.15,85.438c-.045-.6-.115-1.2-.215-1.793a19.05,19.05,0,0,0-.891-3.376,18.015,18.015,0,0,0-3.982-6.437,16.226,16.226,0,0,0-10-4.932,18.4,18.4,0,0,0-2.237-.12,21.244,21.244,0,0,0-2.475.179,20.933,20.933,0,0,0-2.148.393c-.815.2-1.628.4-2.441.6l-6.487,1.623a10.8,10.8,0,0,0-1.557.5,5.081,5.081,0,0,0-1.262.727,2.966,2.966,0,0,0-1.141,2.35,5.047,5.047,0,0,0,.173,1.326q.4,1.582.8,3.163.715,2.823,1.43,5.647.693,2.739,1.385,5.478.671,2.654,1.343,5.308.712,2.814,1.425,5.628.734,2.9,1.467,5.8l1.463,5.779q.7,2.748,1.391,5.5.311,1.233.614,2.468a15.225,15.225,0,0,0,.69,2.2,9.061,9.061,0,0,0,1.455,2.447,6.617,6.617,0,0,0,2.839,1.991,7.264,7.264,0,0,0,2.292.421,9.126,9.126,0,0,0,1.538-.08c.29-.042.578-.088.867-.135.231-.038.461-.08.691-.123.071-.013.083-.035.065-.109q-.227-.894-.455-1.788-.826-3.246-1.652-6.492-.831-3.265-1.664-6.529-.79-3.1-1.58-6.21-.213-.837-.425-1.675c-.019-.076-.009-.093.059-.113.025-.007.051-.01.076-.016q2.081-.521,4.161-1.041c.826-.2,1.649-.424,2.454-.7a19.343,19.343,0,0,0,4.888-2.473,16.389,16.389,0,0,0,5.689-6.991,17.1,17.1,0,0,0,1.167-4,17.98,17.98,0,0,0,.217-1.93A18.927,18.927,0,0,0,155.15,85.438Zm-2.083,2.326a15.608,15.608,0,0,1-.181,1.66,15.077,15.077,0,0,1-.659,2.614,14.324,14.324,0,0,1-5.682,7.3,17.42,17.42,0,0,1-4.143,2.013c-.727.247-1.469.438-2.213.624q-2.762.688-5.522,1.381c-.233.058-.466.116-.7.176-.074.019-.087.037-.069.11.068.276.138.552.209.829l1.629,6.4q.81,3.18,1.62,6.36l1.542,6.059.718,2.823c.006.024.01.048.014.067a.093.093,0,0,1-.076.032,4.91,4.91,0,0,1-3.214-.925,5.02,5.02,0,0,1-1.053-1.088,7.846,7.846,0,0,1-1-1.948,15.348,15.348,0,0,1-.456-1.585q-.266-1.084-.541-2.166-.768-3.04-1.538-6.081-.693-2.739-1.385-5.478-.772-3.049-1.545-6.1-.731-2.89-1.461-5.78-.812-3.209-1.625-6.419l-1.506-5.948q-.772-3.049-1.542-6.1c-.075-.295-.149-.59-.214-.887a2.416,2.416,0,0,1-.055-.5.932.932,0,0,1,.4-.8,2.942,2.942,0,0,1,.484-.29,7.394,7.394,0,0,1,1.38-.476l8.056-2.016c.605-.151,1.21-.3,1.825-.415.519-.094,1.039-.173,1.563-.228a17.165,17.165,0,0,1,2.183-.1,14.9,14.9,0,0,1,5.487,1.133,14.185,14.185,0,0,1,5.056,3.6,16.208,16.208,0,0,1,3.4,5.926A16.956,16.956,0,0,1,152.9,84.3a17.271,17.271,0,0,1,.175,1.836C153.1,86.676,153.1,87.22,153.067,87.764Z" transform="translate(-112.333 -57.979)" fill="#fff"/>
      <path id="Path_158" data-name="Path 158" d="M149.694,86.223a11.767,11.767,0,0,1,4.148.617,8.678,8.678,0,0,1,4.336,3.378,11.17,11.17,0,0,1,1.279,2.589,1.053,1.053,0,0,1-1.961.763c-.046-.107-.081-.218-.122-.327a8.414,8.414,0,0,0-1.324-2.365,6.582,6.582,0,0,0-3.293-2.187,8.779,8.779,0,0,0-1.683-.322,11.956,11.956,0,0,0-1.95-.02,16.047,16.047,0,0,0-2.582.389c-1.4.326-2.791.676-4.182,1.032-.032.008-.064.013-.094.023a.06.06,0,0,0-.047.074c.017.076.034.151.053.227q.913,3.595,1.827,7.189.637,2.513,1.266,5.027.49,1.949.978,3.9a1.023,1.023,0,0,1-.311,1.079,1.049,1.049,0,0,1-1.7-.453c-.08-.246-.132-.5-.2-.751q-.99-3.936-1.98-7.871-.783-3.106-1.574-6.211-.451-1.769-.915-3.534c-.042-.16-.044-.169.117-.21,1.939-.494,3.879-.987,5.824-1.457.658-.159,1.32-.3,1.989-.394A15.843,15.843,0,0,1,149.694,86.223Z" transform="translate(-124.799 -69.225)" fill="#fff"/>
    </g>
  </g>
</svg>
