<svg xmlns="http://www.w3.org/2000/svg" width="305.5" height="88" viewBox="0 0 305.5 88">
  <g id="Group_630" data-name="Group 630" transform="translate(-32 -32)">
    <g id="Group_629" data-name="Group 629">
      <g id="Group_594" data-name="Group 594" transform="translate(136.194 66)">
        <path id="Path_109" data-name="Path 109" d="M145.42,453.2a9.472,9.472,0,1,0,8.867,8.87A9.441,9.441,0,0,0,145.42,453.2Zm.018,16.188a6.763,6.763,0,1,1,6.13-6.1A6.729,6.729,0,0,1,145.438,469.383Z" transform="translate(-135.362 -452.597)" fill="#fff"/>
        <path id="Path_110" data-name="Path 110" d="M195.887,465.294h-2.528v14.071h2.528V471.73a4.37,4.37,0,0,1,5.654-4.3V465.19c-2.241-.521-4.3-.078-5.654,1.824Z" transform="translate(-172.601 -460.18)" fill="#fff"/>
        <path id="Path_111" data-name="Path 111" d="M236.6,474.079H233.97a4.459,4.459,0,0,1-4.43,3.335,5.02,5.02,0,0,1-.026-10.032,4.489,4.489,0,0,1,4.456,3.335H236.6a6.919,6.919,0,0,0-7.113-5.6c-3.674,0-7.322,2.4-7.322,7.27a6.985,6.985,0,0,0,7.374,7.27A6.909,6.909,0,0,0,236.6,474.079Z" transform="translate(-191.098 -460.262)" fill="#fff"/>
        <path id="Path_112" data-name="Path 112" d="M270.462,460.085V454.2h-2.528v18.24h2.528v-7.661c0-2.475,1.511-4.429,4.247-4.377,3,.052,3.674,1.85,3.674,4.482v7.556h2.553v-7.583c0-4.039-1.85-6.722-6.149-6.722A4.817,4.817,0,0,0,270.462,460.085Z" transform="translate(-220.485 -453.251)" fill="#fff"/>
        <path id="Path_113" data-name="Path 113" d="M312.9,453.023c0-1.98-3.179-1.928-3.179,0C309.72,455,312.9,455,312.9,453.023Zm-.313,3.465v14.253h-2.554V456.488Z" transform="translate(-247.315 -451.557)" fill="#fff"/>
        <path id="Path_114" data-name="Path 114" d="M427.7,460.085V454.2h-2.528v18.24H427.7v-7.661c0-2.475,1.511-4.429,4.247-4.377,3,.052,3.674,1.85,3.674,4.482v7.556h2.554v-7.583c0-4.039-1.85-6.722-6.149-6.722A4.818,4.818,0,0,0,427.7,460.085Z" transform="translate(-321.449 -453.251)" fill="#fff"/>
        <g id="Group_592" data-name="Group 592" transform="translate(118.608 4.879)">
          <path id="Path_115" data-name="Path 115" d="M481.917,465.423v14.1h-2.553v-1.9c-1.017,1.537-3.283,2.11-5.029,2.136-4.924,0-7.582-3.465-7.582-7.348a7.118,7.118,0,0,1,7.53-7.218,6.126,6.126,0,0,1,5.107,2.111l-.026-1.876Zm-7.687,2.006a4.759,4.759,0,0,0-4.925,4.977,5.029,5.029,0,1,0,10.058.052A4.94,4.94,0,0,0,474.23,467.429Z" transform="translate(-466.752 -465.188)" fill="#fff"/>
        </g>
        <path id="Path_116" data-name="Path 116" d="M518.221,465.467h-2.527v14.071h2.527V471.9a4.37,4.37,0,0,1,5.654-4.3v-2.241c-2.241-.521-4.3-.078-5.654,1.824Z" transform="translate(-379.569 -460.292)" fill="#fff"/>
        <path id="Path_117" data-name="Path 117" d="M335.966,454.2h2.554v18.24h-2.554v-1.9a5.61,5.61,0,0,1-4.716,2.136c-4.925,0-7.5-3.153-7.5-7.348a6.812,6.812,0,0,1,5.742-7.063l1.343,2.109a4.893,4.893,0,0,0-4.531,4.954c-.026,2.97,1.824,5.159,5.055,5.081a4.665,4.665,0,0,0,4.612-5.029,5.447,5.447,0,0,0-.692-2.774l.005,0-2.811-4.412a4.942,4.942,0,0,1,3.5,1.978Z" transform="translate(-256.32 -453.251)" fill="#fff"/>
        <path id="Path_118" data-name="Path 118" d="M389.623,454.2a6.087,6.087,0,0,1,0,12.169H385.61v6.071h-2.657V454.242l2.657,4.171v5.345h4.013a3.456,3.456,0,0,0,0-6.905h-1.979l-1.693-2.657Z" transform="translate(-294.337 -453.251)" fill="#fff"/>
        <path id="Path_119" data-name="Path 119" d="M671.3,454.2h-2.554v5.967a4.936,4.936,0,0,0-3.482-1.976l2.78,4.364-.015.009a5.421,5.421,0,0,1,.717,2.814,4.664,4.664,0,0,1-4.612,5.029c-3.231.078-5.081-2.111-5.055-5.081a4.894,4.894,0,0,1,4.546-4.955l-1.345-2.111a6.812,6.812,0,0,0-5.755,7.066c0,4.2,2.58,7.348,7.5,7.348a5.609,5.609,0,0,0,4.716-2.136v1.9H671.3Z" transform="translate(-469.997 -453.251)" fill="#fff"/>
        <path id="Path_120" data-name="Path 120" d="M624.8,471.833a3.8,3.8,0,0,1-.052,1.225H612.816c0,2.762,2.632,4.43,4.742,4.43a4.545,4.545,0,0,0,4.2-2.345h2.631a7.321,7.321,0,0,1-14.122-2.684,7.505,7.505,0,0,1,1.068-4.02l1.592,2.5,0,.01h9.2a4.281,4.281,0,0,0-4.534-3.518,5.08,5.08,0,0,0-3.205,1.041l-1.238-1.943a7.776,7.776,0,0,1,4.443-1.339A6.916,6.916,0,0,1,624.8,471.833Z" transform="translate(-440.29 -460.31)" fill="#fff"/>
        <g id="Group_593" data-name="Group 593" transform="translate(146.509 4.853)">
          <path id="Path_121" data-name="Path 121" d="M555.557,466.848l1.687,2.648a4.891,4.891,0,0,0-.394,2v7.947H554.3v-7.921c0-1.98-.756-4.039-3.1-4.039-2.24,0-3.934,1.537-3.934,4.3v7.661h-2.554V465.115h2.554V467.1a4.478,4.478,0,0,1,3.96-1.981A5.058,5.058,0,0,1,555.557,466.848Z" transform="translate(-544.707 -465.115)" fill="#fff"/>
          <path id="Path_122" data-name="Path 122" d="M584.15,465.115c3.882,0,5.576,2.737,5.576,6.306v8.025h-2.553v-8c0-1.98-.5-3.96-2.944-3.96a4.3,4.3,0,0,0-1.458.239l-1.267-1.988A5.8,5.8,0,0,1,584.15,465.115Z" transform="translate(-568.334 -465.115)" fill="#fff"/>
        </g>
      </g>
      <g id="Group_595" data-name="Group 595" transform="translate(32 32)">
        <path id="Path_123" data-name="Path 123" d="M361.031,130.56c.008.631-.033,1.483-.107,2.332a27.611,27.611,0,0,1-4.029,12.351,27.036,27.036,0,0,1-6.481,7.145,31.949,31.949,0,0,1-6.933,4.053,38.832,38.832,0,0,1-4.785,1.7c-.268.076-.273.026-.2.331q.934,3.655,1.862,7.311,1.072,4.235,2.134,8.473.874,3.473,1.745,6.947a1.26,1.26,0,0,1-.279,1.205,1.293,1.293,0,0,1-2.193-.448c-.076-.226-.125-.46-.184-.692q-1.1-4.376-2.2-8.752-1.21-4.8-2.425-9.607c-.539-2.121-1.091-4.239-1.638-6.358-.006-.023-.015-.045-.021-.068-.027-.113-.016-.133.106-.163q.419-.105.838-.206a38.633,38.633,0,0,0,5.433-1.718,30.142,30.142,0,0,0,6.479-3.547,24.707,24.707,0,0,0,6.415-6.777,24.454,24.454,0,0,0,3.09-7.267,25.448,25.448,0,0,0,.521-2.719c.1-.774.176-1.55.216-2.33.034-.653.041-1.306.031-1.959-.011-.733-.059-1.464-.127-2.194q-.082-.88-.218-1.754a30.137,30.137,0,0,0-4.415-11.617,26.734,26.734,0,0,0-5.083-5.856,23.252,23.252,0,0,0-8.182-4.583,22.094,22.094,0,0,0-3.193-.753q-1.044-.165-2.1-.239a25.189,25.189,0,0,0-2.855-.027c-.631.027-1.261.08-1.888.168-.966.135-1.933.265-2.9.406-1.488.216-2.964.494-4.431.825-.772.174-1.542.355-2.313.53a1.293,1.293,0,0,1-1.5-.7,1.279,1.279,0,0,1,.759-1.767c.242-.079.495-.128.744-.185,1.051-.242,2.1-.484,3.16-.7.752-.152,1.506-.3,2.265-.41q1.067-.161,2.135-.317c.554-.081,1.107-.168,1.662-.237q.881-.11,1.767-.168c.911-.06,1.823-.064,2.735-.039.624.017,1.246.068,1.867.135a25.371,25.371,0,0,1,2.65.429,25.042,25.042,0,0,1,7.092,2.709,27.19,27.19,0,0,1,6.734,5.409,31.279,31.279,0,0,1,5.974,9.673,32.629,32.629,0,0,1,1.622,5.489c.17.835.3,1.676.4,2.522A32.882,32.882,0,0,1,361.031,130.56Z" transform="translate(-299.365 -94.844)" fill="#fff"/>
        <path id="Path_124" data-name="Path 124" d="M440.9,114.737c0,.921-.02,1.781-.08,2.64q-.092,1.323-.265,2.638a38.04,38.04,0,0,1-1.209,5.718,35.051,35.051,0,0,1-4.915,10.309,31.611,31.611,0,0,1-9.037,8.66,32.285,32.285,0,0,1-5.913,2.937c-.023.009-.046.014-.068.023-.167.064-.169.066-.124.243.225.879.453,1.757.676,2.637q.88,3.472,1.757,6.944.9,3.588,1.8,7.178c.062.247.12.5.182.742a1.293,1.293,0,0,1-2.506.637c-.155-.576-.292-1.157-.437-1.736q-.9-3.578-1.8-7.156t-1.809-7.128c-.321-1.257-.651-2.512-.976-3.767-.01-.039-.023-.076-.03-.115-.014-.072,0-.094.077-.12.235-.079.47-.157.706-.232a30.807,30.807,0,0,0,4.657-1.892,28.905,28.905,0,0,0,10.165-8.571,31.988,31.988,0,0,0,4.561-8.632,35.035,35.035,0,0,0,1.383-5.211c.147-.791.261-1.586.358-2.385a37.532,37.532,0,0,0,.221-5.845c-.021-.6-.065-1.193-.119-1.788q-.086-.952-.217-1.9-.174-1.242-.435-2.469a36.32,36.32,0,0,0-1.478-5.11A33.932,33.932,0,0,0,418.92,83.074q-1.518-.744-3.1-1.347c-.089-.034-.18-.065-.267-.106a1.286,1.286,0,0,1,.328-2.439,1.275,1.275,0,0,1,.706.075c.5.194,1,.39,1.49.6a37.7,37.7,0,0,1,8.277,4.784,36.053,36.053,0,0,1,9.652,11.141,37.936,37.936,0,0,1,3.722,9.438q.43,1.728.7,3.487c.107.692.194,1.388.263,2.085A38.24,38.24,0,0,1,440.9,114.737Z" transform="translate(-370.811 -79.162)" fill="#fff"/>
        <path id="Path_125" data-name="Path 125" d="M478.846,125.783c0,1.028-.038,2.055-.105,3.081-.059.906-.151,1.809-.264,2.71a45.125,45.125,0,0,1-1.743,7.991,42.327,42.327,0,0,1-5.764,11.728,37.455,37.455,0,0,1-6.437,7.058,34.415,34.415,0,0,1-5.486,3.8c-.056.031-.112.061-.167.094-.1.058-.1.059-.073.169.139.547.281,1.095.42,1.642q.76,3,1.519,5.994.569,2.257,1.127,4.517a1.319,1.319,0,0,1-.042.821,1.3,1.3,0,0,1-1.238.818,1.281,1.281,0,0,1-1.192-.88c-.074-.226-.123-.461-.181-.692q-1.1-4.376-2.2-8.752c-.4-1.566-.806-3.129-1.21-4.693-.014-.054-.03-.107-.043-.161a.082.082,0,0,1,.047-.1c.078-.041.156-.082.234-.121.908-.452,1.805-.926,2.674-1.451a32.841,32.841,0,0,0,7.017-5.718A37.4,37.4,0,0,0,472.227,144a41.505,41.505,0,0,0,2.984-8.752q.344-1.551.576-3.122.2-1.348.313-2.7c.056-.667.095-1.335.119-2,.028-.749.043-1.5.029-2.246-.017-.884-.053-1.767-.121-2.649-.046-.6-.1-1.191-.169-1.784q-.162-1.376-.41-2.739-.371-2.046-.938-4.045a42.725,42.725,0,0,0-5.875-12.512,44.244,44.244,0,0,0-4.308-5.343,1.456,1.456,0,0,1-.379-.626,1.293,1.293,0,0,1,2.085-1.321,2.149,2.149,0,0,1,.171.168,45.713,45.713,0,0,1,10.318,17.346,44.587,44.587,0,0,1,1.371,5.314q.271,1.4.458,2.8c.088.671.159,1.344.217,2.019C478.784,123.124,478.839,124.452,478.846,125.783Z" transform="translate(-401.387 -90.121)" fill="#fff"/>
        <path id="Path_126" data-name="Path 126" d="M513.288,174.244c.014.762-.02,1.645-.063,2.529-.037.755-.094,1.51-.165,2.263s-.159,1.521-.265,2.278q-.28,2-.721,3.969a48.43,48.43,0,0,1-1.851,6.245,47.578,47.578,0,0,1-7.278,12.926,52.028,52.028,0,0,1-6.98,7.255q-.945.812-1.925,1.582a.538.538,0,0,1-.057.044c-.09.053-.1.121-.073.222q.34,1.293.668,2.589.4,1.562.785,3.126a1.465,1.465,0,0,1,.017.755,1.288,1.288,0,0,1-1.209.958,1.267,1.267,0,0,1-1.242-.81,4.044,4.044,0,0,1-.145-.5c-.561-2.362-1.185-4.707-1.795-7.057-.008-.031-.017-.062-.027-.092a.151.151,0,0,1,.069-.183c.383-.288.765-.578,1.143-.872a51.148,51.148,0,0,0,7.137-6.691,45.19,45.19,0,0,0,8.807-15.054,45.684,45.684,0,0,0,1.575-5.7q.3-1.427.506-2.868c.083-.575.147-1.153.213-1.73.13-1.14.2-2.284.249-3.431.044-1.1.044-2.2.017-3.3-.021-.884-.07-1.767-.141-2.649-.073-.913-.167-1.824-.287-2.732a55.788,55.788,0,0,0-1.5-7.413,1.489,1.489,0,0,1-.034-.8,1.289,1.289,0,0,1,1.188-.953,1.269,1.269,0,0,1,1.27.836c.094.262.158.534.229.8q.522,1.987.9,4,.232,1.232.41,2.473.186,1.289.314,2.584.108,1.106.168,2.215C513.258,172.082,513.292,173.1,513.288,174.244Z" transform="translate(-427.661 -138.127)" fill="#fff"/>
        <path id="Path_127" data-name="Path 127" d="M257.657,192.612a1.284,1.284,0,0,1,1.264.929c.089.3.166.6.245.9.739,2.809,1.456,5.623,2.17,8.438s1.425,5.615,2.134,8.423q1.166,4.617,2.326,9.236,1,3.959,1.987,7.919,1.1,4.387,2.2,8.776.273,1.088.547,2.176a1.432,1.432,0,0,1,.033.684,1.3,1.3,0,0,1-2.5.107c-.094-.321-.165-.647-.247-.971q-1.233-4.921-2.466-9.841-.952-3.8-1.906-7.594-1.092-4.341-2.188-8.68-1.089-4.316-2.182-8.632c-.82-3.223-1.632-6.448-2.488-9.663-.053-.2-.108-.4-.16-.6a1.285,1.285,0,0,1,.913-1.563A1.6,1.6,0,0,1,257.657,192.612Z" transform="translate(-252.539 -163.859)" fill="#fff"/>
        <path id="Path_128" data-name="Path 128" d="M525.342,319.665a1.29,1.29,0,0,1-.991-2.122,1.278,1.278,0,0,1,.116-.121,69.336,69.336,0,0,0,5.068-5.485,66.237,66.237,0,0,0,4.826-6.514,45.357,45.357,0,0,0,3.406-6.22c.333-.75.64-1.51.914-2.283.027-.075.052-.151.084-.224a1.3,1.3,0,0,1,2.485.573,1.571,1.571,0,0,1-.107.464q-.522,1.462-1.167,2.876a48.3,48.3,0,0,1-3.355,6.086,69.68,69.68,0,0,1-5.565,7.453c-1.438,1.691-2.939,3.325-4.526,4.878-.108.106-.216.213-.33.313A1.253,1.253,0,0,1,525.342,319.665Z" transform="translate(-452.36 -240.986)" fill="#fff"/>
        <path id="Path_129" data-name="Path 129" d="M242.505,259.2a1.274,1.274,0,0,1,1.222.845c.092.254.163.516.234.777.439,1.6.846,3.216,1.251,4.829q.829,3.311,1.65,6.624.532,2.143,1.054,4.288a1.281,1.281,0,0,1-.7,1.477,1.3,1.3,0,0,1-1.811-.834c-.087-.323-.161-.649-.241-.973q-1.05-4.24-2.1-8.479c-.461-1.845-.936-3.686-1.41-5.528-.121-.47-.261-.935-.39-1.4a1.284,1.284,0,0,1,.777-1.538A1.2,1.2,0,0,1,242.505,259.2Z" transform="translate(-241.22 -213.57)" fill="#fff"/>
        <path id="Path_130" data-name="Path 130" d="M322.759,152.045c-.055-.739-.141-1.474-.264-2.2a23.42,23.42,0,0,0-1.1-4.15,22.147,22.147,0,0,0-4.9-7.915,19.951,19.951,0,0,0-12.3-6.065,22.579,22.579,0,0,0-2.751-.147,26.066,26.066,0,0,0-3.043.221,25.617,25.617,0,0,0-2.641.483c-1,.242-2,.491-3,.741l-7.976,2a13.3,13.3,0,0,0-1.915.615,6.253,6.253,0,0,0-1.552.894,3.647,3.647,0,0,0-1.4,2.89,6.188,6.188,0,0,0,.212,1.63q.488,1.945.983,3.889.879,3.472,1.759,6.943.852,3.368,1.7,6.736.825,3.264,1.652,6.527l1.752,6.921q.9,3.564,1.8,7.129l1.8,7.106q.855,3.379,1.71,6.759.382,1.516.755,3.035a18.7,18.7,0,0,0,.848,2.709,11.153,11.153,0,0,0,1.789,3.009,8.134,8.134,0,0,0,3.49,2.448,8.922,8.922,0,0,0,2.818.517,11.239,11.239,0,0,0,1.891-.1c.356-.051.711-.108,1.066-.166.284-.047.567-.1.85-.15.088-.016.1-.043.08-.134q-.279-1.1-.559-2.2-1.015-3.992-2.031-7.983-1.022-4.014-2.046-8.028-.972-3.818-1.942-7.636-.261-1.029-.522-2.06c-.024-.094-.011-.115.072-.138.031-.009.063-.012.094-.02,1.705-.427,3.409-.857,5.116-1.28,1.017-.252,2.028-.521,3.017-.864a23.771,23.771,0,0,0,6.01-3.041,20.151,20.151,0,0,0,7-8.6,21.028,21.028,0,0,0,1.435-4.916,22.108,22.108,0,0,0,.267-2.372A23.3,23.3,0,0,0,322.759,152.045Zm-2.561,2.861a19.138,19.138,0,0,1-.223,2.041,18.538,18.538,0,0,1-.81,3.214,17.619,17.619,0,0,1-6.987,8.98,21.43,21.43,0,0,1-5.094,2.475c-.894.3-1.807.539-2.721.766q-3.4.846-6.79,1.7c-.287.072-.574.143-.86.216-.091.023-.107.045-.085.135.084.34.17.679.256,1.019q1,3.933,2,7.866,1,3.91,1.992,7.82.948,3.725,1.9,7.451l.883,3.471c.007.03.012.06.016.083a.116.116,0,0,1-.094.04,6.039,6.039,0,0,1-3.952-1.138,6.176,6.176,0,0,1-1.294-1.338,9.648,9.648,0,0,1-1.23-2.395,18.924,18.924,0,0,1-.561-1.949q-.328-1.333-.665-2.664-.944-3.738-1.891-7.476-.852-3.368-1.7-6.736-.949-3.749-1.9-7.5-.9-3.553-1.8-7.106-1-3.946-2-7.893-.926-3.657-1.851-7.314-.949-3.75-1.9-7.5c-.092-.362-.182-.726-.262-1.091a2.971,2.971,0,0,1-.068-.616,1.146,1.146,0,0,1,.49-.986,3.61,3.61,0,0,1,.6-.356,9.1,9.1,0,0,1,1.7-.585q4.952-1.241,9.906-2.479c.744-.186,1.488-.373,2.244-.51.638-.116,1.277-.213,1.922-.28a21.156,21.156,0,0,1,2.684-.121,18.316,18.316,0,0,1,6.747,1.393,17.435,17.435,0,0,1,6.217,4.424,19.931,19.931,0,0,1,4.182,7.286,20.859,20.859,0,0,1,.8,3.389,21.192,21.192,0,0,1,.215,2.258C320.242,153.568,320.233,154.237,320.2,154.905Z" transform="translate(-270.112 -118.283)" fill="#fff"/>
        <path id="Path_131" data-name="Path 131" d="M325.6,161.629a14.476,14.476,0,0,1,5.1.759,10.668,10.668,0,0,1,5.331,4.154,13.732,13.732,0,0,1,1.572,3.184,1.295,1.295,0,0,1-2.411.939c-.057-.131-.1-.269-.15-.4a10.352,10.352,0,0,0-1.629-2.907,8.094,8.094,0,0,0-4.049-2.689,10.766,10.766,0,0,0-2.069-.4,14.678,14.678,0,0,0-2.4-.025,19.741,19.741,0,0,0-3.175.478c-1.72.4-3.432.832-5.143,1.269-.038.01-.079.016-.116.029a.074.074,0,0,0-.057.09c.021.093.041.186.065.279q1.123,4.42,2.246,8.839.783,3.09,1.557,6.181.6,2.4,1.2,4.793a1.259,1.259,0,0,1-.382,1.327,1.291,1.291,0,0,1-2.089-.557c-.1-.3-.162-.615-.24-.924q-1.217-4.839-2.434-9.678-.963-3.82-1.935-7.637c-.369-1.45-.747-2.9-1.125-4.345-.051-.2-.055-.208.144-.259,2.385-.607,4.77-1.214,7.162-1.792.808-.2,1.623-.363,2.445-.484A19.418,19.418,0,0,1,325.6,161.629Z" transform="translate(-294.992 -140.728)" fill="#fff"/>
      </g>
    </g>
  </g>
</svg>
