<svg xmlns="http://www.w3.org/2000/svg" width="286.531" height="217.5" viewBox="0 0 286.531 217.5">
    <defs>
        <style>
            .cls-1{fill:#fff}
        </style>
    </defs>
    <g id="OrchidPharmed_Logo" transform="translate(-36.443 -38.379)">
        <g id="Group_1467" transform="translate(36.443 228.092)">
            <path id="Path_440" d="M50.761 255.392a13.482 13.482 0 1 0 12.62 12.625 13.439 13.439 0 0 0-12.62-12.625zm.025 23.041a9.626 9.626 0 1 1 8.725-8.69 9.578 9.578 0 0 1-8.725 8.691z" class="cls-1" transform="translate(-36.443 -254.542)"/>
            <path id="Path_441" d="M73.689 262.655h-3.6v20.027h3.6v-10.866a6.222 6.222 0 0 1 8.049-6.12v-3.189c-3.19-.742-6.12-.111-8.049 2.6z" class="cls-1" transform="translate(-40.545 -255.377)"/>
            <path id="Path_442" d="M107.351 275.051H103.6a6.346 6.346 0 0 1-6.3 4.747c-3.449 0-6.861-2.336-6.861-7.157a6.691 6.691 0 0 1 6.824-7.121 6.388 6.388 0 0 1 6.342 4.747h3.746c-1-5.341-5.564-7.974-10.125-7.974-5.23 0-10.422 3.412-10.422 10.348 0 6.972 5.267 10.421 10.5 10.348 4.521-.038 9.046-2.634 10.047-7.938z" class="cls-1" transform="translate(-42.582 -255.386)"/>
            <path id="Path_443" d="M116.954 264.34v-8.382h-3.6v25.961h3.6v-10.9c0-3.522 2.151-6.3 6.046-6.23 4.265.074 5.229 2.633 5.229 6.379v10.755h3.634v-10.797c0-5.749-2.633-9.568-8.753-9.568-2.522.001-4.636.63-6.156 2.782z" class="cls-1" transform="translate(-45.819 -254.614)"/>
            <path id="Path_444" d="M142.124 256.513c0-2.819-4.525-2.744-4.525 0 .001 2.818 4.525 2.818 4.525 0zm-.445 4.932v20.287h-3.634v-20.286z" class="cls-1" transform="translate(-48.774 -254.427)"/>
            <path id="Path_445" d="M208.18 264.34v-8.382h-3.6v25.961h3.6v-10.9c0-3.522 2.151-6.3 6.046-6.23 4.265.074 5.229 2.633 5.229 6.379v10.755h3.635v-10.797c0-5.749-2.633-9.568-8.752-9.568-2.523.001-4.638.63-6.158 2.782z" class="cls-1" transform="translate(-56.939 -254.614)"/>
            <g id="Group_1465" transform="translate(168.823 6.944)">
                <path id="Path_446" d="M250.287 262.67v20.065h-3.634v-2.707c-1.446 2.187-4.673 3-7.158 3.041-7.009 0-10.792-4.933-10.792-10.459 0-5.415 3.93-10.274 10.718-10.274 2.485 0 5.489.594 7.269 3l-.037-2.67zm-10.94 2.856a6.774 6.774 0 0 0-7.01 7.084 7.158 7.158 0 1 0 14.316.074 7.031 7.031 0 0 0-7.307-7.159z" class="cls-1" transform="translate(-228.702 -262.335)"/>
            </g>
            <path id="Path_447" d="M260.693 262.755h-3.6v20.028h3.6v-10.866a6.221 6.221 0 0 1 8.048-6.119v-3.19c-3.188-.742-6.119-.112-8.048 2.6z" class="cls-1" transform="translate(-63.34 -255.389)"/>
            <path id="Path_448" d="M163.13 255.958h3.635v25.961h-3.635v-2.707c-1.446 2.187-4.19 3-6.712 3.041-7.01 0-10.681-4.487-10.681-10.458 0-5.009 2.929-9.086 8.173-10.053l1.913 3a6.965 6.965 0 0 0-6.451 7.052c-.038 4.227 2.6 7.343 7.2 7.231 3.338-.074 6.564-2.447 6.564-7.157a7.749 7.749 0 0 0-.984-3.948h.007l-4-6.28a7.033 7.033 0 0 1 4.978 2.815z" class="cls-1" transform="translate(-49.766 -254.614)"/>
            <path id="Path_449" d="M189.58 255.958c5.6 0 8.419 4.339 8.419 8.679s-2.819 8.641-8.419 8.641h-5.712v8.641h-3.783v-25.9l3.783 5.938v7.608h5.712a4.919 4.919 0 0 0 0-9.83h-2.818l-2.41-3.782z" class="cls-1" transform="translate(-53.952 -254.614)"/>
            <path id="Path_450" d="M359.831 255.958H356.2v8.493a7.03 7.03 0 0 0-4.956-2.813l3.957 6.212-.021.013a7.714 7.714 0 0 1 1.02 4.006c0 4.71-3.226 7.084-6.565 7.157-4.6.112-7.232-3-7.2-7.231a6.965 6.965 0 0 1 6.471-7.053l-1.914-3c-5.255.962-8.191 5.043-8.191 10.058 0 5.971 3.672 10.458 10.681 10.458 2.522-.037 5.267-.854 6.713-3.041v2.707h3.634z" class="cls-1" transform="translate(-73.299 -254.614)"/>
            <path id="Path_451" d="M332.654 271.792a5.4 5.4 0 0 1-.074 1.744H315.6c0 3.931 3.745 6.3 6.749 6.3a6.468 6.468 0 0 0 5.971-3.339h3.746a10.019 10.019 0 0 1-9.754 6.565c-5.155 0-10.348-3.486-10.348-10.384a10.674 10.674 0 0 1 1.521-5.721l2.265 3.555v.015h13.093c-.705-3.6-3.561-5.007-6.454-5.007a7.226 7.226 0 0 0-4.562 1.481l-1.762-2.766a11.071 11.071 0 0 1 6.324-1.9c4.962.001 9.859 3.153 10.265 9.457z" class="cls-1" transform="translate(-70.027 -255.391)"/>
            <g id="Group_1466" transform="translate(208.536 6.907)">
                <path id="Path_452" d="M289.371 264.76l2.4 3.769a6.968 6.968 0 0 0-.56 2.851v11.312h-3.635v-11.275c0-2.819-1.075-5.749-4.413-5.749-3.189 0-5.6 2.189-5.6 6.12v10.9h-3.635v-20.4h3.635v2.82a6.372 6.372 0 0 1 5.638-2.82c2.439.005 4.655.512 6.17 2.472z" class="cls-1" transform="translate(-273.928 -262.293)"/>
                <path id="Path_453" d="M299.043 262.293c5.526 0 7.936 3.894 7.936 8.975v11.423h-3.634V271.3c0-2.819-.7-5.637-4.19-5.637a6.137 6.137 0 0 0-2.076.341l-1.8-2.829a8.248 8.248 0 0 1 3.764-.882z" class="cls-1" transform="translate(-276.53 -262.293)"/>
            </g>
        </g>
        <g id="Group_1468" transform="translate(90.372 38.379)">
            <path id="Path_454" d="M227.321 111.657c.017 1.269-.066 2.981-.215 4.688a55.5 55.5 0 0 1-8.1 24.828 54.339 54.339 0 0 1-13.027 14.362 64.122 64.122 0 0 1-13.936 8.148 77.9 77.9 0 0 1-9.617 3.413c-.539.154-.549.054-.393.666q1.877 7.347 3.742 14.7 2.154 8.514 4.29 17.034 1.757 6.981 3.508 13.964a2.533 2.533 0 0 1-.56 2.423 2.6 2.6 0 0 1-4.408-.9c-.152-.454-.252-.926-.369-1.391L183.813 196q-2.433-9.657-4.875-19.311c-1.083-4.263-2.193-8.52-3.291-12.78-.012-.047-.032-.091-.043-.138-.054-.227-.032-.267.213-.328q.84-.211 1.684-.413a77.54 77.54 0 0 0 10.922-3.454 60.5 60.5 0 0 0 13.023-7.13 49.624 49.624 0 0 0 12.894-13.623 49.125 49.125 0 0 0 6.213-14.608 51.177 51.177 0 0 0 1.047-5.465q.316-2.333.435-4.685c.069-1.313.083-2.626.063-3.938-.022-1.473-.119-2.943-.256-4.41q-.166-1.77-.438-3.526a60.559 60.559 0 0 0-8.875-23.351 53.721 53.721 0 0 0-10.218-11.771 46.741 46.741 0 0 0-16.445-9.212 44.424 44.424 0 0 0-6.42-1.515q-2.1-.332-4.214-.481a50.671 50.671 0 0 0-5.739-.054c-1.269.054-2.535.16-3.794.336-1.942.271-3.886.534-5.825.816-2.991.435-5.959.994-8.907 1.659-1.551.349-3.1.714-4.65 1.066a2.6 2.6 0 0 1-3.025-1.4 2.571 2.571 0 0 1 1.525-3.552c.487-.159.995-.257 1.5-.372 2.113-.486 4.226-.974 6.352-1.4 1.512-.306 3.027-.594 4.553-.825q2.144-.324 4.291-.637c1.113-.163 2.225-.338 3.341-.477q1.77-.221 3.553-.338c1.832-.12 3.664-.128 5.5-.079 1.254.034 2.5.138 3.751.271a51.023 51.023 0 0 1 5.327.863 50.328 50.328 0 0 1 14.254 5.446 54.657 54.657 0 0 1 13.537 10.873 62.877 62.877 0 0 1 12.004 19.434 65.561 65.561 0 0 1 3.26 11.033q.511 2.517.814 5.07a66.007 66.007 0 0 1 .467 8.063z" class="cls-1" transform="translate(-103.366 -39.865)"/>
            <path id="Path_455" d="M251.014 109.888c0 1.852-.04 3.581-.161 5.307-.124 1.772-.3 3.54-.533 5.3a76.383 76.383 0 0 1-2.431 11.493 70.471 70.471 0 0 1-9.879 20.722 63.546 63.546 0 0 1-18.166 17.408 64.979 64.979 0 0 1-11.886 5.9c-.046.017-.093.028-.138.046-.336.129-.34.133-.249.488.452 1.767.911 3.532 1.359 5.3q1.77 6.977 3.532 13.958 1.818 7.214 3.622 14.43c.125.5.241.995.367 1.491a2.6 2.6 0 0 1-5.038 1.28c-.311-1.158-.587-2.326-.879-3.49q-1.8-7.193-3.609-14.384-1.808-7.167-3.635-14.327c-.645-2.527-1.308-5.049-1.963-7.573-.02-.077-.046-.154-.061-.232-.028-.146 0-.19.155-.242.472-.158.944-.316 1.419-.467a61.879 61.879 0 0 0 9.361-3.8 58.109 58.109 0 0 0 20.433-17.229 64.3 64.3 0 0 0 9.168-17.351 70.3 70.3 0 0 0 2.779-10.474c.3-1.588.525-3.188.72-4.794a75.45 75.45 0 0 0 .444-11.748c-.042-1.2-.131-2.4-.239-3.594q-.173-1.914-.436-3.816-.349-2.5-.874-4.963a73.088 73.088 0 0 0-2.971-10.273 68.2 68.2 0 0 0-34.389-38.015q-3.051-1.5-6.227-2.706c-.18-.069-.364-.132-.537-.213a2.585 2.585 0 0 1 .66-4.9 2.549 2.549 0 0 1 1.418.151c1 .391 2 .783 3 1.2a75.814 75.814 0 0 1 16.638 9.616 72.469 72.469 0 0 1 19.4 22.394 76.265 76.265 0 0 1 7.482 18.971q.863 3.473 1.412 7.008c.217 1.392.39 2.79.53 4.191a76.86 76.86 0 0 1 .402 7.937z" class="cls-1" transform="translate(-110.133 -38.379)"/>
            <path id="Path_456" d="M268.73 111.1c.006 2.067-.077 4.131-.212 6.192-.119 1.821-.3 3.636-.53 5.448a90.67 90.67 0 0 1-3.5 16.062 85.043 85.043 0 0 1-11.588 23.576 75.213 75.213 0 0 1-12.939 14.188 69.246 69.246 0 0 1-11.028 7.643c-.112.062-.226.123-.336.188-.2.117-.2.119-.148.338.28 1.1.565 2.2.844 3.3q1.528 6.023 3.052 12.049 1.143 4.536 2.266 9.079a2.651 2.651 0 0 1-.083 1.652 2.6 2.6 0 0 1-2.489 1.644 2.573 2.573 0 0 1-2.4-1.769c-.148-.455-.248-.926-.365-1.392q-2.212-8.8-4.426-17.591c-.8-3.148-1.622-6.289-2.433-9.433-.028-.108-.061-.216-.086-.325a.165.165 0 0 1 .095-.2c.156-.082.313-.163.471-.242 1.826-.91 3.629-1.861 5.375-2.917a65.985 65.985 0 0 0 14.107-11.49 75.17 75.17 0 0 0 13.049-19.389 83.45 83.45 0 0 0 6-17.591q.693-3.118 1.158-6.276.4-2.709.63-5.436c.112-1.34.19-2.683.24-4.027.055-1.505.086-3.01.057-4.515-.033-1.776-.107-3.552-.243-5.325-.091-1.2-.2-2.394-.338-3.585q-.325-2.766-.825-5.506-.745-4.112-1.884-8.132a85.92 85.92 0 0 0-11.809-25.15 88.983 88.983 0 0 0-8.66-10.74 2.93 2.93 0 0 1-.762-1.259 2.6 2.6 0 0 1 4.19-2.656 4.294 4.294 0 0 1 .343.337 91.892 91.892 0 0 1 20.74 34.866 89.508 89.508 0 0 1 2.753 10.684q.545 2.8.922 5.636c.177 1.349.319 2.7.436 4.058.232 2.662.342 5.333.356 8.006z" class="cls-1" transform="translate(-113.03 -39.417)"/>
            <path id="Path_457" d="M287.639 116.562c.029 1.531-.04 3.308-.126 5.083q-.112 2.277-.333 4.549c-.146 1.531-.319 3.057-.531 4.578q-.562 4.019-1.45 7.978a97.222 97.222 0 0 1-3.721 12.553 95.617 95.617 0 0 1-14.629 25.982 104.6 104.6 0 0 1-14.029 14.584q-1.9 1.632-3.869 3.181a1.1 1.1 0 0 1-.114.089c-.181.106-.2.242-.147.446q.684 2.6 1.343 5.2.8 3.139 1.576 6.283a2.935 2.935 0 0 1 .035 1.517 2.591 2.591 0 0 1-2.431 1.927 2.549 2.549 0 0 1-2.5-1.629 8.06 8.06 0 0 1-.292-1.013c-1.127-4.747-2.383-9.462-3.608-14.185-.016-.061-.033-.124-.054-.184a.3.3 0 0 1 .14-.368c.769-.58 1.538-1.162 2.3-1.752a102.874 102.874 0 0 0 14.346-13.45 90.827 90.827 0 0 0 17.7-30.26 91.766 91.766 0 0 0 3.167-11.464q.6-2.869 1.017-5.766c.167-1.156.3-2.318.428-3.478.26-2.292.408-4.592.5-6.9.089-2.21.089-4.42.034-6.629-.043-1.776-.141-3.552-.283-5.324-.147-1.834-.335-3.666-.577-5.491a112.136 112.136 0 0 0-3.012-14.9 2.985 2.985 0 0 1-.068-1.607 2.59 2.59 0 0 1 2.388-1.915 2.552 2.552 0 0 1 2.553 1.68c.188.526.318 1.073.459 1.614q1.048 3.995 1.819 8.05.466 2.476.823 4.972.374 2.591.631 5.195.216 2.222.337 4.453c.118 2.056.186 4.104.178 6.401z" class="cls-1" transform="translate(-115.518 -43.965)"/>
            <path id="Path_458" d="M109.218 104.2a2.58 2.58 0 0 1 2.541 1.868c.179.6.334 1.2.493 1.805 1.487 5.645 2.928 11.3 4.362 16.961s2.864 11.285 4.29 16.931q2.343 9.281 4.675 18.565 2 7.958 3.994 15.917l4.419 17.64q.548 2.188 1.1 4.374a2.879 2.879 0 0 1 .065 1.375 2.6 2.6 0 0 1-5.028.215c-.189-.644-.333-1.3-.5-1.952l-4.957-19.782q-1.914-7.633-3.831-15.264l-4.4-17.448q-2.19-8.677-4.386-17.352c-1.648-6.479-3.281-12.962-5-19.423-.107-.4-.217-.8-.321-1.206a2.584 2.584 0 0 1 1.835-3.141 3.169 3.169 0 0 1 .649-.083z" class="cls-1" transform="translate(-98.93 -46.402)"/>
            <path id="Path_459" d="M264.56 211.862a2.593 2.593 0 0 1-1.993-4.265 2.654 2.654 0 0 1 .233-.243 139.6 139.6 0 0 0 10.186-11.025 133.2 133.2 0 0 0 9.7-13.094 91.2 91.2 0 0 0 6.847-12.5c.668-1.507 1.286-3.035 1.836-4.589.054-.151.1-.3.168-.45a2.608 2.608 0 0 1 4.995 1.153 3.149 3.149 0 0 1-.214.932q-1.05 2.94-2.346 5.781a97.084 97.084 0 0 1-6.744 12.234 140.242 140.242 0 0 1-11.185 14.981c-2.891 3.4-5.907 6.683-9.1 9.807-.218.213-.435.428-.664.629a2.519 2.519 0 0 1-1.719.649z" class="cls-1" transform="translate(-117.858 -53.708)"/>
            <path id="Path_460" d="M100.441 142.83a2.561 2.561 0 0 1 2.457 1.7c.184.51.328 1.036.472 1.56.882 3.224 1.7 6.465 2.513 9.708q1.668 6.654 3.317 13.315 1.068 4.307 2.119 8.619a2.574 2.574 0 0 1-1.4 2.969 2.605 2.605 0 0 1-3.641-1.677c-.174-.649-.323-1.3-.485-1.956q-2.11-8.522-4.225-17.044c-.927-3.708-1.882-7.409-2.834-11.112-.243-.945-.525-1.879-.785-2.82A2.581 2.581 0 0 1 99.513 143a2.45 2.45 0 0 1 .928-.17z" class="cls-1" transform="translate(-97.858 -51.111)"/>
            <path id="Path_461" d="M206.421 109.951c-.112-1.487-.284-2.964-.532-4.432a47.083 47.083 0 0 0-2.2-8.343 44.526 44.526 0 0 0-9.842-15.91 40.1 40.1 0 0 0-24.727-12.19 45.481 45.481 0 0 0-5.529-.3 52.509 52.509 0 0 0-6.116.443 51.749 51.749 0 0 0-5.308.97c-2.013.486-4.024.988-6.034 1.49q-8.018 2-16.032 4.01a26.693 26.693 0 0 0-3.849 1.236 12.557 12.557 0 0 0-3.12 1.8 7.33 7.33 0 0 0-2.82 5.809 12.474 12.474 0 0 0 .427 3.276q.983 3.909 1.976 7.817l3.534 13.957 3.422 13.54q1.658 6.559 3.32 13.12l3.522 13.911q1.814 7.164 3.626 14.331l3.615 14.283 3.438 13.585q.768 3.048 1.517 6.1a37.621 37.621 0 0 0 1.7 5.445 22.394 22.394 0 0 0 3.6 6.048 16.354 16.354 0 0 0 7.016 4.922 17.955 17.955 0 0 0 5.665 1.04 22.56 22.56 0 0 0 3.8-.2c.716-.1 1.43-.217 2.143-.334.571-.094 1.14-.2 1.709-.3.176-.032.205-.086.16-.269q-.561-2.21-1.124-4.419l-4.083-16.047q-2.055-8.069-4.112-16.137-1.953-7.674-3.9-15.349-.526-2.069-1.05-4.14c-.047-.188-.022-.23.145-.278.061-.017.126-.024.189-.04l10.283-2.574c2.042-.507 4.075-1.048 6.064-1.737a47.808 47.808 0 0 0 12.081-6.112 40.508 40.508 0 0 0 14.06-17.273 42.267 42.267 0 0 0 2.884-9.882 44.442 44.442 0 0 0 .536-4.769 46.767 46.767 0 0 0-.054-6.098zm-5.149 5.75a38.585 38.585 0 0 1-.448 4.1 37.272 37.272 0 0 1-1.63 6.46 35.4 35.4 0 0 1-14.044 18.049 43.054 43.054 0 0 1-10.239 4.975c-1.8.609-3.631 1.083-5.471 1.541q-6.825 1.7-13.649 3.412c-.576.144-1.153.286-1.729.434-.184.047-.214.09-.17.271.168.683.342 1.365.515 2.048l4.026 15.813 4 15.72 3.81 14.976 1.775 6.977c.015.059.024.119.033.166a.23.23 0 0 1-.189.08 12.135 12.135 0 0 1-7.944-2.287 12.409 12.409 0 0 1-2.6-2.689 19.392 19.392 0 0 1-2.472-4.814 37.922 37.922 0 0 1-1.128-3.918q-.659-2.679-1.336-5.355l-3.8-15.029-3.423-13.539q-1.907-7.537-3.818-15.074l-3.612-14.285q-2.006-7.932-4.016-15.865l-3.721-14.7q-1.907-7.537-3.811-15.075c-.184-.729-.367-1.459-.528-2.193a5.969 5.969 0 0 1-.136-1.239 2.3 2.3 0 0 1 .984-1.982 7.273 7.273 0 0 1 1.2-.716 18.271 18.271 0 0 1 3.411-1.176q9.955-2.495 19.912-4.983c1.5-.373 2.991-.75 4.51-1.025 1.282-.233 2.568-.428 3.864-.563a42.424 42.424 0 0 1 5.4-.243 36.821 36.821 0 0 1 13.562 2.8 35.061 35.061 0 0 1 12.5 8.893 40.061 40.061 0 0 1 8.408 14.647 41.905 41.905 0 0 1 1.612 6.811 42.694 42.694 0 0 1 .433 4.539c.047 1.35.03 2.694-.041 4.037z" class="cls-1" transform="translate(-100.595 -42.085)"/>
            <path id="Path_462" d="M164.483 86.223a29.083 29.083 0 0 1 10.253 1.526 21.45 21.45 0 0 1 10.716 8.351 27.608 27.608 0 0 1 3.161 6.4 2.6 2.6 0 0 1-4.847 1.887c-.114-.263-.2-.54-.3-.809a20.8 20.8 0 0 0-3.274-5.845 16.268 16.268 0 0 0-8.139-5.4 21.7 21.7 0 0 0-4.159-.8 29.547 29.547 0 0 0-4.82-.049 39.659 39.659 0 0 0-6.382.961c-3.456.806-6.9 1.672-10.337 2.552-.078.02-.158.032-.234.058a.149.149 0 0 0-.116.182c.041.187.083.374.131.56l4.515 17.768q1.574 6.21 3.13 12.425 1.21 4.817 2.417 9.635a2.529 2.529 0 0 1-.767 2.668 2.594 2.594 0 0 1-4.2-1.12c-.2-.608-.327-1.236-.482-1.857l-4.894-19.454q-1.936-7.678-3.889-15.352-1.114-4.372-2.261-8.735c-.1-.4-.11-.418.289-.52 4.794-1.221 9.588-2.439 14.4-3.6 1.625-.393 3.261-.731 4.916-.973a39.159 39.159 0 0 1 5.173-.459z" class="cls-1" transform="translate(-102.952 -44.211)"/>
        </g>
    </g>
</svg>
